<svg xmlns="http://www.w3.org/2000/svg" viewBox="0 0 600 600" width="600" height="600">
<rect width="600" height="600" fill="#F2E6DA"/>
<g fill="rgba(255,255,255,.35)"><circle cx="70" cy="80" r="6"/><circle cx="530" cy="110" r="5"/><circle cx="520" cy="470" r="7"/><circle cx="90" cy="430" r="5"/><circle cx="300" cy="60" r="4"/></g>
<ellipse cx="300" cy="505" rx="200" ry="24" fill="rgba(0,0,0,.10)"/>
<circle cx="300" cy="300" r="190" fill="#8A5A2E"/>
<circle cx="300" cy="300" r="172" fill="#B07A45"/>
<circle cx="300" cy="190" r="45" fill="#7A4E2D" transform="rotate(0 300 300)"/><circle cx="300" cy="190" r="36" fill="#E8A317" transform="rotate(0 300 300)"/><circle cx="300" cy="190" r="45" fill="#7A4E2D" transform="rotate(60 300 300)"/><circle cx="300" cy="190" r="36" fill="#B33A2F" transform="rotate(60 300 300)"/><circle cx="300" cy="190" r="45" fill="#7A4E2D" transform="rotate(120 300 300)"/><circle cx="300" cy="190" r="36" fill="#6B8E23" transform="rotate(120 300 300)"/><circle cx="300" cy="190" r="45" fill="#7A4E2D" transform="rotate(180 300 300)"/><circle cx="300" cy="190" r="36" fill="#5C3A21" transform="rotate(180 300 300)"/><circle cx="300" cy="190" r="45" fill="#7A4E2D" transform="rotate(240 300 300)"/><circle cx="300" cy="190" r="36" fill="#D9792A" transform="rotate(240 300 300)"/><circle cx="300" cy="190" r="45" fill="#7A4E2D" transform="rotate(300 300 300)"/><circle cx="300" cy="190" r="36" fill="#F4C430" transform="rotate(300 300 300)"/>
<circle cx="300" cy="300" r="48" fill="#7A4E2D"/><circle cx="300" cy="300" r="38" fill="#EADBC8"/>
</svg>